<svg width="600" height="438" viewBox="0 0 600 438" fill="none" xmlns="http://www.w3.org/2000/svg">
<path d="M575.912 88.041C560.584 70.7604 538.796 55.2304 510.985 41.9593C454.489 14.9088 379.489 0 300 0C220.511 0 145.511 14.9088 89.0146 41.9028C61.2044 55.2304 39.4161 70.7039 24.0876 88.041C8.10219 106.112 0 125.257 0 145.022V160.27C0 163.771 5.47445 166.595 12.2628 166.595H71.3869C78.1752 166.595 83.6496 163.771 83.6496 160.27V145.022C83.6496 88.8317 180.657 43.1452 300 43.1452C419.343 43.1452 516.35 88.8317 516.35 145.022C516.35 168.063 500.474 189.749 470.365 207.82C440.584 225.722 398.54 238.541 352.007 243.962C325.401 247.068 301.423 254.805 284.453 265.874C267.541 276.905 258.323 290.551 258.285 304.614V322.347C258.285 325.848 263.759 328.672 270.547 328.672H329.672C336.46 328.672 341.934 325.848 341.934 322.347V304.614C341.934 295.748 353.869 287.955 370.401 286.035C434.343 278.58 492.372 260.791 533.869 235.943C554.781 223.35 571.095 209.345 582.372 194.153C594.088 178.397 600 161.851 600 145.022C600 125.257 591.898 106.056 575.912 88.041ZM300 373.85C266.168 373.85 238.686 388.024 238.686 405.475C238.686 422.925 266.168 437.099 300 437.099C333.832 437.099 361.314 422.925 361.314 405.475C361.314 388.024 333.832 373.85 300 373.85Z" fill="#E00353"/>
</svg>
